<?xml version="1.0" encoding="UTF-8" standalone="no"?>
<!DOCTYPE svg PUBLIC "-//W3C//DTD SVG 1.1//EN" "http://www.w3.org/Graphics/SVG/1.1/DTD/svg11.dtd">
<svg width="100%" height="100%" viewBox="0 0 1080 1080" version="1.1" xmlns="http://www.w3.org/2000/svg" xmlns:xlink="http://www.w3.org/1999/xlink" xml:space="preserve" xmlns:serif="http://www.serif.com/" style="fill-rule:evenodd;clip-rule:evenodd;stroke-linejoin:round;stroke-miterlimit:2;">
    <g transform="matrix(5.07035,0,0,5.07035,-324.495,-300.07)">
        <path d="M105,243C97.262,240.225 90.264,235.551 84,229C82.633,225.478 82.696,222.153 84,219C89.364,215.977 95.083,215.495 101,218C95.644,212.495 90.711,205.02 86,195C85.52,191.032 86.256,187.586 89,185C92.014,183.496 95.341,183.464 99,185C103.333,187.029 106.667,191.484 111,196C117.58,206.712 122,222 122,235C119.029,237.389 117.037,239.058 116,242C115.149,243.866 115.101,244.858 116,247C117.682,248.346 120.025,248.095 122,246C122.506,243.136 122.534,240.08 125,238C128.669,235.103 134.822,233.626 139.536,234C145.169,234.467 148.697,235.691 151.566,238C155.821,240.702 160.755,244.987 166,250C169.118,252.345 172.803,251.445 175,249L175,234L219,234C221.172,232.996 222.578,231.386 223,229L223,188L265,188C267.06,187.295 268.769,185.731 270,183L270,131C269.533,128.843 268.309,127.406 266,127L223,127L223,85C223.157,82.8 222.238,81.095 220,80L166,80C164.32,80.683 163.298,81.673 163,83C171.38,91.906 177.221,103.556 181,114C189.292,118.509 197.971,122.149 207,125C209.048,125.428 209.623,127.532 209,131C206.677,132.151 205.034,133.836 204,136C203.852,138.569 204.753,141.01 207,141C208.564,141.849 210.212,142.276 212,142C212.758,143.752 212.774,145.431 212,147C211.748,150.163 209.923,153.403 207,155C211.023,154 213,153 214,154C216,157 215,158 214,161C212,164 212.046,164.126 212,166C214.925,172.348 216.642,176.064 218,179C219.441,182.381 219.322,185.711 218,189C211.333,194.102 203.667,196.869 197,198C189.861,199.099 185.731,200.862 179.967,204.93C173.261,209.664 172.471,210.967 171,214C170.833,223.287 171.827,232.391 171,242L171,246C169.525,246.709 168.199,246.673 167,246C161.616,240.926 159.077,236.684 148.805,232C142.313,229.04 136.049,229.651 131.252,230.767L124,234C124.165,227.278 123.219,220.63 122,214L114,193C108.256,183.388 101.758,177.542 95,173C91.963,171.328 88.234,170.028 84,169C78.53,168.218 75.508,170.623 74,175C74.343,179.813 75.012,183.135 76,185C79.788,196.126 84,202 88,210C83.378,209.884 78.957,209.913 76,211C73.296,212.061 71.77,214.189 71,217C71.894,222.817 73.54,226.868 76,229C78.3,232 81.588,235 86,238C92.235,240.947 98.581,242.448 105,243Z" style="fill:rgb(255,88,88);"/>
    </g>
    <g transform="matrix(5.07035,0,0,5.07035,-324.495,-300.07)">
        <path d="M149,87C150.885,91.926 152.276,95.894 152,101C152.079,107.327 149.806,112.214 147,118C142.478,125.514 137.141,132.846 131,140C128.224,143.473 125.337,146.664 124,150.496C123.363,149.313 123.625,148.443 124,147C124.473,143.346 125.691,138.786 127.111,136.888L133,128C135.689,124.06 137.571,119.66 139,115C139.682,113 140.038,111 140,109C140.238,100.081 137.372,97.059 134,95C136.667,98.431 137.995,101.388 137.563,105.924C137.169,110.065 136.555,111.051 135,115C131.953,122.735 127.961,127.825 124,133C121.923,134.996 120.273,138.7 119,144C118.8,148.333 118.556,152.667 120,157L117,164C116.141,167.684 115.78,171.036 116,174C116.49,180.616 117.431,185.803 119,189C121.911,195.94 125.65,201.119 130,205C137.344,213.112 145.116,216.653 153,219C145.947,215.136 139.153,210.284 133,203C129.606,199.606 126.955,194.913 125,189C123.334,182 122.247,174 124,167C129.337,172.565 136.245,177.657 144,179C137.411,176.189 131.454,170.805 126.124,163.316C128.825,156.938 131.859,151.758 136,147C142.28,139.011 147.699,129.709 152,121L155,112C155.891,105.666 155.708,101.585 154,96C152.434,90.674 150.735,88.434 149,87Z"/>
    </g>
    <g transform="matrix(5.07035,0,0,5.07035,-324.495,-300.07)">
        <path d="M179.967,111.051C180.446,112.316 180.558,113.024 181.15,114.207C184.032,113.019 186.184,110.135 187,107C185.009,109.575 182.906,111.916 179.967,111.051Z"/>
    </g>
</svg>
